<svg width="44" height="44" viewBox="0 0 44 44" fill="none" xmlns="http://www.w3.org/2000/svg">
<rect x="0.5" y="0.5" width="43" height="43" rx="21.5" stroke="#E7E8EE"/>
<path d="M18.6667 16.7917C18.325 16.7917 18.0417 16.5083 18.0417 16.1667V13.6667C18.0417 13.325 18.325 13.0417 18.6667 13.0417C19.0083 13.0417 19.2917 13.325 19.2917 13.6667V16.1667C19.2917 16.5083 19.0083 16.7917 18.6667 16.7917Z" fill="#ABACB9"/>
<path d="M25.3333 16.7917C24.9917 16.7917 24.7083 16.5083 24.7083 16.1667V13.6667C24.7083 13.325 24.9917 13.0417 25.3333 13.0417C25.675 13.0417 25.9583 13.325 25.9583 13.6667V16.1667C25.9583 16.5083 25.675 16.7917 25.3333 16.7917Z" fill="#ABACB9"/>
<path d="M19.0833 24.0833C18.975 24.0833 18.8667 24.0583 18.7667 24.0167C18.6583 23.975 18.575 23.9167 18.4917 23.8417C18.3417 23.6833 18.25 23.475 18.25 23.25C18.25 23.1417 18.275 23.0333 18.3167 22.9333C18.3583 22.8333 18.4167 22.7417 18.4917 22.6583C18.575 22.5833 18.6583 22.525 18.7667 22.4833C19.0667 22.3583 19.4417 22.425 19.675 22.6583C19.825 22.8167 19.9167 23.0333 19.9167 23.25C19.9167 23.3 19.9083 23.3583 19.9 23.4167C19.8917 23.4667 19.875 23.5167 19.85 23.5667C19.8333 23.6167 19.8083 23.6667 19.775 23.7167C19.75 23.7583 19.7083 23.8 19.675 23.8417C19.5167 23.9917 19.3 24.0833 19.0833 24.0833Z" fill="#ABACB9"/>
<path d="M22 24.0833C21.8917 24.0833 21.7833 24.0583 21.6833 24.0167C21.575 23.975 21.4917 23.9166 21.4083 23.8416C21.2583 23.6833 21.1667 23.475 21.1667 23.25C21.1667 23.1417 21.1917 23.0333 21.2333 22.9333C21.275 22.8333 21.3333 22.7417 21.4083 22.6583C21.4917 22.5833 21.575 22.525 21.6833 22.4833C21.9833 22.35 22.3583 22.425 22.5917 22.6583C22.7417 22.8167 22.8333 23.0333 22.8333 23.25C22.8333 23.3 22.825 23.3583 22.8167 23.4167C22.8083 23.4667 22.7917 23.5167 22.7667 23.5667C22.75 23.6167 22.725 23.6667 22.6917 23.7167C22.6667 23.7583 22.625 23.8 22.5917 23.8416C22.4333 23.9916 22.2167 24.0833 22 24.0833Z" fill="#ABACB9"/>
<path d="M24.9167 24.0833C24.8083 24.0833 24.7 24.0583 24.6 24.0167C24.4917 23.975 24.4083 23.9166 24.325 23.8416C24.2917 23.8 24.2583 23.7583 24.225 23.7167C24.1917 23.6667 24.1667 23.6167 24.15 23.5667C24.125 23.5167 24.1083 23.4667 24.1 23.4167C24.0917 23.3583 24.0833 23.3 24.0833 23.25C24.0833 23.0333 24.175 22.8167 24.325 22.6583C24.4083 22.5833 24.4917 22.525 24.6 22.4833C24.9083 22.35 25.275 22.425 25.5083 22.6583C25.6583 22.8167 25.75 23.0333 25.75 23.25C25.75 23.3 25.7417 23.3583 25.7333 23.4167C25.725 23.4667 25.7083 23.5167 25.6833 23.5667C25.6667 23.6167 25.6417 23.6667 25.6083 23.7167C25.5833 23.7583 25.5417 23.8 25.5083 23.8416C25.35 23.9916 25.1333 24.0833 24.9167 24.0833Z" fill="#ABACB9"/>
<path d="M19.0833 27C18.975 27 18.8667 26.975 18.7667 26.9333C18.6667 26.8917 18.575 26.8333 18.4917 26.7583C18.3417 26.6 18.25 26.3833 18.25 26.1667C18.25 26.0583 18.275 25.95 18.3167 25.85C18.3583 25.7417 18.4167 25.65 18.4917 25.575C18.8 25.2667 19.3667 25.2667 19.675 25.575C19.825 25.7333 19.9167 25.95 19.9167 26.1667C19.9167 26.3833 19.825 26.6 19.675 26.7583C19.5167 26.9083 19.3 27 19.0833 27Z" fill="#ABACB9"/>
<path d="M22 27C21.7833 27 21.5667 26.9083 21.4083 26.7583C21.2583 26.6 21.1667 26.3833 21.1667 26.1667C21.1667 26.0583 21.1917 25.95 21.2333 25.85C21.275 25.7417 21.3333 25.65 21.4083 25.575C21.7167 25.2667 22.2833 25.2667 22.5917 25.575C22.6667 25.65 22.725 25.7417 22.7667 25.85C22.8083 25.95 22.8333 26.0583 22.8333 26.1667C22.8333 26.3833 22.7417 26.6 22.5917 26.7583C22.4333 26.9083 22.2167 27 22 27Z" fill="#ABACB9"/>
<path d="M24.9167 27C24.7 27 24.4833 26.9083 24.325 26.7583C24.25 26.6833 24.1917 26.5917 24.15 26.4834C24.1083 26.3834 24.0833 26.275 24.0833 26.1667C24.0833 26.0584 24.1083 25.95 24.15 25.85C24.1917 25.7417 24.25 25.65 24.325 25.575C24.5167 25.3834 24.8083 25.2917 25.075 25.35C25.1333 25.3583 25.1833 25.375 25.2333 25.4C25.2833 25.4167 25.3333 25.4417 25.3833 25.475C25.425 25.5 25.4667 25.5417 25.5083 25.575C25.6583 25.7334 25.75 25.95 25.75 26.1667C25.75 26.3834 25.6583 26.6 25.5083 26.7583C25.35 26.9083 25.1333 27 24.9167 27Z" fill="#ABACB9"/>
<path d="M29.0833 20.2H14.9167C14.575 20.2 14.2917 19.9166 14.2917 19.575C14.2917 19.2333 14.575 18.95 14.9167 18.95H29.0833C29.425 18.95 29.7083 19.2333 29.7083 19.575C29.7083 19.9166 29.425 20.2 29.0833 20.2Z" fill="#ABACB9"/>
<path d="M25.3333 30.9583H18.6667C15.625 30.9583 13.875 29.2083 13.875 26.1667V19.0833C13.875 16.0417 15.625 14.2917 18.6667 14.2917H25.3333C28.375 14.2917 30.125 16.0417 30.125 19.0833V26.1667C30.125 29.2083 28.375 30.9583 25.3333 30.9583ZM18.6667 15.5417C16.2833 15.5417 15.125 16.7 15.125 19.0833V26.1667C15.125 28.55 16.2833 29.7083 18.6667 29.7083H25.3333C27.7167 29.7083 28.875 28.55 28.875 26.1667V19.0833C28.875 16.7 27.7167 15.5417 25.3333 15.5417H18.6667Z" fill="#ABACB9"/>
</svg>
